{
  "accessors": [
    {
      "bufferView": 0,
      "componentType": 5125,
      "count": 6480,
      "type": "SCALAR"
    },
    {
      "bufferView": 1,
      "byteOffset": 12,
      "componentType": 5120,
      "count": 2400,
      "normalized": true,
      "type": "VEC3"
    },
    {
      "bufferView": 1,
      "componentType": 5126,
      "count": 2400,
      "max": [
        7.778703212738037,
        39.956260681152344,
        7.778702735900879
      ],
      "min": [
        -7.778703212738037,
        5.414918899536133,
        -7.778702735900879
      ],
      "type": "VEC3"
    },
    {
      "bufferView": 1,
      "byteOffset": 24,
      "componentType": 5120,
      "count": 2400,
      "normalized": true,
      "type": "VEC4"
    },
    {
      "bufferView": 1,
      "byteOffset": 16,
      "componentType": 5126,
      "count": 2400,
      "max": [
        1.9873863458633423,
        0.9890837073326111
      ],
      "min": [
        0.01272719819098711,
        0.013301700353622437
      ],
      "type": "VEC2"
    },
    {
      "bufferView": 0,
      "byteOffset": 25920,
      "componentType": 5125,
      "count": 918,
      "type": "SCALAR"
    },
    {
      "bufferView": 1,
      "byteOffset": 76812,
      "componentType": 5120,
      "count": 358,
      "normalized": true,
      "type": "VEC3"
    },
    {
      "bufferView": 1,
      "byteOffset": 76800,
      "componentType": 5126,
      "count": 358,
      "max": [
        6.153320789337158,
        2.709714412689209,
        5.001894474029541
      ],
      "min": [
        -6.153320789337158,
        -0.017454907298088074,
        -6.191272258758545
      ],
      "type": "VEC3"
    },
    {
      "bufferView": 1,
      "byteOffset": 76824,
      "componentType": 5120,
      "count": 358,
      "normalized": true,
      "type": "VEC4"
    },
    {
      "bufferView": 1,
      "byteOffset": 76816,
      "componentType": 5126,
      "count": 358,
      "max": [
        1.963632583618164,
        0.8199741244316101
      ],
      "min": [
        0.2794026732444763,
        0.015491839498281479
      ],
      "type": "VEC2"
    },
    {
      "bufferView": 0,
      "byteOffset": 29592,
      "componentType": 5125,
      "count": 9984,
      "type": "SCALAR"
    },
    {
      "bufferView": 1,
      "byteOffset": 88268,
      "componentType": 5120,
      "count": 3443,
      "normalized": true,
      "type": "VEC3"
    },
    {
      "bufferView": 1,
      "byteOffset": 88256,
      "componentType": 5126,
      "count": 3443,
      "max": [
        3.2096354961395264,
        12.370321273803711,
        3.2096354961395264
      ],
      "min": [
        -3.2096354961395264,
        11.601543426513672,
        -3.2096354961395264
      ],
      "type": "VEC3"
    },
    {
      "bufferView": 1,
      "byteOffset": 88280,
      "componentType": 5120,
      "count": 3443,
      "normalized": true,
      "type": "VEC4"
    },
    {
      "bufferView": 1,
      "byteOffset": 88272,
      "componentType": 5126,
      "count": 3443,
      "max": [
        1.9821254014968872,
        0.23923969268798828
      ],
      "min": [
        0.939502477645874,
        0.09337687492370605
      ],
      "type": "VEC2"
    },
    {
      "bufferView": 0,
      "byteOffset": 69528,
      "componentType": 5125,
      "count": 5280,
      "type": "SCALAR"
    },
    {
      "bufferView": 1,
      "byteOffset": 198444,
      "componentType": 5120,
      "count": 2452,
      "normalized": true,
      "type": "VEC3"
    },
    {
      "bufferView": 1,
      "byteOffset": 198432,
      "componentType": 5126,
      "count": 2452,
      "max": [
        2.9048731327056885,
        17.403291702270508,
        2.9048736095428467
      ],
      "min": [
        -2.904874086380005,
        2.698986768722534,
        -2.9048736095428467
      ],
      "type": "VEC3"
    },
    {
      "bufferView": 1,
      "byteOffset": 198456,
      "componentType": 5120,
      "count": 2452,
      "normalized": true,
      "type": "VEC4"
    },
    {
      "bufferView": 1,
      "byteOffset": 198448,
      "componentType": 5126,
      "count": 2452,
      "max": [
        1.9842336177825928,
        0.9879700541496277
      ],
      "min": [
        0.38782310485839844,
        0.6878390312194824
      ],
      "type": "VEC2"
    },
    {
      "bufferView": 0,
      "byteOffset": 90648,
      "componentType": 5125,
      "count": 816,
      "type": "SCALAR"
    },
    {
      "bufferView": 1,
      "byteOffset": 276908,
      "componentType": 5120,
      "count": 292,
      "normalized": true,
      "type": "VEC3"
    },
    {
      "bufferView": 1,
      "byteOffset": 276896,
      "componentType": 5126,
      "count": 292,
      "max": [
        5.480269908905029,
        34.62086868286133,
        5.4802703857421875
      ],
      "min": [
        -5.480270862579346,
        5.397974014282227,
        -5.4802703857421875
      ],
      "type": "VEC3"
    },
    {
      "bufferView": 1,
      "byteOffset": 276920,
      "componentType": 5120,
      "count": 292,
      "normalized": true,
      "type": "VEC4"
    },
    {
      "bufferView": 1,
      "byteOffset": 276912,
      "componentType": 5126,
      "count": 292,
      "max": [
        1.9706647396087646,
        0.9642616510391235
      ],
      "min": [
        0.5331264138221741,
        0.01322108507156372
      ],
      "type": "VEC2"
    },
    {
      "bufferView": 0,
      "byteOffset": 93912,
      "componentType": 5125,
      "count": 7056,
      "type": "SCALAR"
    },
    {
      "bufferView": 1,
      "byteOffset": 286252,
      "componentType": 5120,
      "count": 3040,
      "normalized": true,
      "type": "VEC3"
    },
    {
      "bufferView": 1,
      "byteOffset": 286240,
      "componentType": 5126,
      "count": 3040,
      "max": [
        7.642270088195801,
        27.450550079345703,
        7.642269611358643
      ],
      "min": [
        -7.642270088195801,
        24.981931686401367,
        -7.642270565032959
      ],
      "type": "VEC3"
    },
    {
      "bufferView": 1,
      "byteOffset": 286264,
      "componentType": 5120,
      "count": 3040,
      "normalized": true,
      "type": "VEC4"
    },
    {
      "bufferView": 1,
      "byteOffset": 286256,
      "componentType": 5126,
      "count": 3040,
      "max": [
        0.7261749505996704,
        0.9864392876625061
      ],
      "min": [
        0.023551762104034424,
        0.5231167078018188
      ],
      "type": "VEC2"
    },
    {
      "bufferView": 0,
      "byteOffset": 122136,
      "componentType": 5125,
      "count": 9744,
      "type": "SCALAR"
    },
    {
      "bufferView": 1,
      "byteOffset": 383532,
      "componentType": 5120,
      "count": 4988,
      "normalized": true,
      "type": "VEC3"
    },
    {
      "bufferView": 1,
      "byteOffset": 383520,
      "componentType": 5126,
      "count": 4988,
      "max": [
        12.185635566711426,
        7.949699401855469,
        9.913936614990234
      ],
      "min": [
        -12.185635566711426,
        0.33446216583251953,
        -12.187491416931152
      ],
      "type": "VEC3"
    },
    {
      "bufferView": 1,
      "byteOffset": 383544,
      "componentType": 5120,
      "count": 4988,
      "normalized": true,
      "type": "VEC4"
    },
    {
      "bufferView": 1,
      "byteOffset": 383536,
      "componentType": 5126,
      "count": 4988,
      "max": [
        0.5983285903930664,
        0.9891083836555481
      ],
      "min": [
        0.20710283517837524,
        0.759240448474884
      ],
      "type": "VEC2"
    }
  ],
  "asset": {
    "extras": {
      "author": "Lora (https://sketchfab.com/Lora_o)",
      "license": "CC-BY-4.0 (http://creativecommons.org/licenses/by/4.0/)",
      "source": "https://sketchfab.com/3d-models/lighthouse-dab98033118949728804bfc5f4076b8f",
      "title": "lighthouse"
    },
    "generator": "Sketchfab-12.68.0",
    "version": "2.0"
  },
  "bufferViews": [
    {
      "buffer": 0,
      "byteLength": 161112,
      "name": "indices_baked",
      "target": 34963
    },
    {
      "buffer": 0,
      "byteLength": 543136,
      "byteOffset": 161112,
      "byteStride": 32,
      "name": "vertices_baked",
      "target": 34962
    }
  ],
  "buffers": [
    {
      "byteLength": 704248,
      "name": "scene",
      "uri": "scene_baked.bin"
    }
  ],
  "extensionsRequired": [
    "KHR_materials_pbrSpecularGlossiness",
    "KHR_mesh_quantization"
  ],
  "extensionsUsed": [
    "KHR_materials_pbrSpecularGlossiness",
    "KHR_mesh_quantization"
  ],
  "images": [
    {
      "name": "textures/aiWireframe2_diffuse",
      "uri": "textures/aiWireframe2_diffuse.png"
    },
    {
      "name": "textures/aiWireframe2_specularGlossiness",
      "uri": "textures/aiWireframe2_specularGlossiness.png"
    },
    {
      "name": "textures/aiWireframe2_normal",
      "uri": "textures/aiWireframe2_normal.png"
    },
    {
      "name": "textures/aiWireframe2_occlusion",
      "uri": "textures/aiWireframe2_occlusion.png"
    }
  ],
  "materials": [
    {
      "doubleSided": true,
      "extensions": {
        "KHR_materials_pbrSpecularGlossiness": {
          "diffuseFactor": [
            1.0,
            1.0,
            1.0,
            1.0
          ],
          "diffuseTexture": {
            "index": 0
          },
          "glossinessFactor": 1.0,
          "specularFactor": [
            1.0,
            1.0,
            1.0
          ],
          "specularGlossinessTexture": {
            "index": 1
          }
        }
      },
      "name": "aiWireframe2",
      "normalTexture": {
        "index": 2
      },
      "occlusionTexture": {
        "index": 3
      }
    },
    {
      "alphaMode": "BLEND",
      "doubleSided": true,
      "extensions": {
        "KHR_materials_pbrSpecularGlossiness": {
          "diffuseFactor": [
            1.0,
            1.0,
            1.0,
            0.6
          ],
          "diffuseTexture": {
            "index": 0
          },
          "glossinessFactor": 1.0,
          "specularFactor": [
            1.0,
            1.0,
            1.0
          ],
          "specularGlossinessTexture": {
            "index": 1
          }
        }
      },
      "name": "aiWireframe1",
      "occlusionTexture": {
        "index": 3
      }
    }
  ],
  "meshes": [
    {
      "name": "house_LOW_aiWireframe2_0",
      "primitives": [
        {
          "attributes": {
            "NORMAL": 1,
            "POSITION": 2,
            "TANGENT": 3,
            "TEXCOORD_0": 4
          },
          "indices": 0,
          "material": 0,
          "mode": 4
        }
      ]
    },
    {
      "name": "stair_LOW_aiWireframe2_0",
      "primitives": [
        {
          "attributes": {
            "NORMAL": 6,
            "POSITION": 7,
            "TANGENT": 8,
            "TEXCOORD_0": 9
          },
          "indices": 5,
          "material": 0,
          "mode": 4
        }
      ]
    },
    {
      "name": "capital_LOW_aiWireframe2_0",
      "primitives": [
        {
          "attributes": {
            "NORMAL": 11,
            "POSITION": 12,
            "TANGENT": 13,
            "TEXCOORD_0": 14
          },
          "indices": 10,
          "material": 0,
          "mode": 4
        }
      ]
    },
    {
      "name": "polySurface159_aiWireframe2_0",
      "primitives": [
        {
          "attributes": {
            "NORMAL": 16,
            "POSITION": 17,
            "TANGENT": 18,
            "TEXCOORD_0": 19
          },
          "indices": 15,
          "material": 0,
          "mode": 4
        }
      ]
    },
    {
      "name": "polySurface135_aiWireframe1_0",
      "primitives": [
        {
          "attributes": {
            "NORMAL": 21,
            "POSITION": 22,
            "TANGENT": 23,
            "TEXCOORD_0": 24
          },
          "indices": 20,
          "material": 1,
          "mode": 4
        }
      ]
    },
    {
      "name": "polySurface1_aiWireframe2_0",
      "primitives": [
        {
          "attributes": {
            "NORMAL": 26,
            "POSITION": 27,
            "TANGENT": 28,
            "TEXCOORD_0": 29
          },
          "indices": 25,
          "material": 0,
          "mode": 4
        }
      ]
    },
    {
      "name": "polySurface178_aiWireframe2_0",
      "primitives": [
        {
          "attributes": {
            "NORMAL": 31,
            "POSITION": 32,
            "TANGENT": 33,
            "TEXCOORD_0": 34
          },
          "indices": 30,
          "material": 0,
          "mode": 4
        }
      ]
    }
  ],
  "nodes": [
    {
      "children": [
        1
      ],
      "matrix": [
        0.9999877214431763,
        1.3990802496377856e-16,
        -0.0049588968977332115,
        0.0,
        -0.0049588968977332115,
        3.10617146153519e-16,
        -0.9999877214431763,
        0.0,
        -1.3836598183776256e-16,
        1.0,
        3.113071140460617e-16,
        0.0,
        0.005897982977330685,
        -6.339665787891103e-07,
        -1.459331269870745e-05,
        1.0
      ],
      "name": "Sketchfab_model"
    },
    {
      "children": [
        2
      ],
      "matrix": [
        1.0,
        0.0,
        0.0,
        0.0,
        0.0,
        0.0,
        1.0,
        0.0,
        0.0,
        -1.0,
        0.0,
        0.0,
        0.0,
        0.0,
        0.0,
        1.0
      ],
      "name": "8c6fd406663b44448f750031c60d4f9f.fbx"
    },
    {
      "children": [
        3,
        15,
        17
      ],
      "name": "RootNode"
    },
    {
      "children": [
        4,
        6,
        8,
        10,
        13
      ],
      "matrix": [
        1.0,
        0.0,
        0.0,
        0.0,
        0.0,
        0.9999999999999867,
        1.6292067073209113e-07,
        0.0,
        0.0,
        -1.6292067073209113e-07,
        0.9999999999999867,
        0.0,
        0.0,
        0.0,
        0.0,
        1.0
      ],
      "name": "LOW"
    },
    {
      "children": [
        5
      ],
      "matrix": [
        1.0,
        0.0,
        0.0,
        0.0,
        0.0,
        1.0,
        1.421085474167178e-14,
        0.0,
        0.0,
        -1.421085474167178e-14,
        1.0,
        0.0,
        0.0,
        0.0,
        0.0,
        1.0
      ],
      "name": "house_LOW"
    },
    {
      "mesh": 0,
      "name": "house_LOW_aiWireframe2_0"
    },
    {
      "children": [
        7
      ],
      "matrix": [
        2.0,
        0.0,
        0.0,
        0.0,
        0.0,
        2.0,
        2.842170948334356e-14,
        0.0,
        0.0,
        -2.842170948334356e-14,
        2.0,
        0.0,
        0.0,
        -1.0842021724855044e-19,
        5.811452865600586e-06,
        1.0
      ],
      "name": "stair_LOW"
    },
    {
      "mesh": 1,
      "name": "stair_LOW_aiWireframe2_0"
    },
    {
      "children": [
        9
      ],
      "matrix": [
        2.0,
        0.0,
        0.0,
        0.0,
        0.0,
        2.0,
        2.842170948334356e-14,
        0.0,
        0.0,
        -2.842170948334356e-14,
        2.0,
        0.0,
        6.661338147750939e-16,
        -0.14177322387695313,
        -1.0658141036401503e-14,
        1.0
      ],
      "name": "capital_LOW"
    },
    {
      "mesh": 2,
      "name": "capital_LOW_aiWireframe2_0"
    },
    {
      "children": [
        11
      ],
      "matrix": [
        2.0,
        0.0,
        0.0,
        0.0,
        0.0,
        2.0,
        2.842170948334356e-14,
        0.0,
        0.0,
        -2.842170948334356e-14,
        2.0,
        0.0,
        4.76837158203125e-07,
        0.0,
        0.0,
        1.0
      ],
      "name": "windows_LOW"
    },
    {
      "children": [
        12
      ],
      "matrix": [
        1.0067979097366333,
        0.0,
        0.0,
        0.0,
        0.0,
        1.0,
        1.4210854688732221e-14,
        0.0,
        0.0,
        -1.4210854688732221e-14,
        1.0,
        0.0,
        0.0,
        0.0,
        0.0,
        1.0
      ],
      "name": "polySurface159"
    },
    {
      "mesh": 3,
      "name": "polySurface159_aiWireframe2_0"
    },
    {
      "children": [
        14
      ],
      "matrix": [
        1.0,
        0.0,
        0.0,
        0.0,
        0.0,
        1.0,
        1.421085474167178e-14,
        0.0,
        0.0,
        -1.421085474167178e-14,
        1.0,
        0.0,
        0.0,
        0.0,
        0.0,
        1.0
      ],
      "name": "polySurface135"
    },
    {
      "mesh": 4,
      "name": "polySurface135_aiWireframe1_0"
    },
    {
      "children": [
        16
      ],
      "matrix": [
        1.0,
        0.0,
        0.0,
        0.0,
        0.0,
        0.9999999999999867,
        1.6292067073209113e-07,
        0.0,
        0.0,
        -1.6292067073209113e-07,
        0.9999999999999867,
        0.0,
        0.0,
        0.0,
        0.0,
        1.0
      ],
      "name": "polySurface1"
    },
    {
      "mesh": 5,
      "name": "polySurface1_aiWireframe2_0"
    },
    {
      "children": [
        18
      ],
      "matrix": [
        1.0,
        0.0,
        0.0,
        0.0,
        0.0,
        0.9999999999999867,
        1.6292067073209113e-07,
        0.0,
        0.0,
        -1.6292067073209113e-07,
        0.9999999999999867,
        0.0,
        0.0,
        0.0,
        0.0,
        1.0
      ],
      "name": "polySurface178"
    },
    {
      "mesh": 6,
      "name": "polySurface178_aiWireframe2_0"
    }
  ],
  "samplers": [
    {
      "magFilter": 9729,
      "minFilter": 9987,
      "wrapS": 10497,
      "wrapT": 10497
    }
  ],
  "scene": 0,
  "scenes": [
    {
      "name": "Sketchfab_Scene",
      "nodes": [
        0
      ]
    }
  ],
  "textures": [
    {
      "sampler": 0,
      "source": 0
    },
    {
      "sampler": 0,
      "source": 1
    },
    {
      "sampler": 0,
      "source": 2
    },
    {
      "sampler": 0,
      "source": 3
    }
  ]
}
